<svg width="32" height="32" viewBox="0 0 32 32" fill="none" xmlns="http://www.w3.org/2000/svg">
<path fill-rule="evenodd" clip-rule="evenodd" d="M1.66667 16.8134C1.66667 16.2611 2.11439 15.8134 2.66667 15.8134H25.3333C25.8856 15.8134 26.3333 16.2611 26.3333 16.8134C26.3333 17.3656 25.8856 17.8134 25.3333 17.8134H2.66667C2.11439 17.8134 1.66667 17.3656 1.66667 16.8134Z" fill="#C6C6C6"/>
<path fill-rule="evenodd" clip-rule="evenodd" d="M6.71712 9.75877C5.21232 9.8487 4.59281 10.1613 4.26537 10.5745C3.89323 11.044 3.66667 11.9137 3.66667 13.7067V23.0267C3.66667 25.0174 3.94439 25.8626 4.37907 26.2915C4.81839 26.725 5.68591 27 7.70671 27H20.2933C22.2799 27 23.1522 26.7362 23.5981 26.3167C24.0264 25.9138 24.3129 25.123 24.3333 23.2347V13.7067C24.3333 11.716 24.0556 10.8707 23.6209 10.4418C23.1816 10.0083 22.3141 9.73334 20.2933 9.73334H7.70671C7.35913 9.73334 7.03323 9.74562 6.71712 9.75877ZM6.62504 7.76087C6.94617 7.74749 7.31086 7.73334 7.70671 7.73334H20.2933C22.2992 7.73334 23.9517 7.95837 25.0257 9.0182C26.1044 10.0826 26.3333 11.724 26.3333 13.7067V23.2505C26.3133 25.1584 26.0599 26.7466 24.9685 27.7733C23.8945 28.7838 22.2667 29 20.2933 29H7.70671C5.70084 29 4.04835 28.775 2.97431 27.7151C1.89564 26.6507 1.66667 25.0093 1.66667 23.0267V13.7067C1.66667 11.8996 1.86011 10.3893 2.69797 9.3322C3.57991 8.21945 4.95868 7.85916 6.6077 7.76174L6.62504 7.76087Z" fill="#C6C6C6"/>
<path fill-rule="evenodd" clip-rule="evenodd" d="M7.71195 7.73333H20.2933C22.2992 7.73333 23.9517 7.95837 25.0257 9.0182C26.1044 10.0826 26.3333 11.724 26.3333 13.7067V22.1195C27.1055 21.9723 27.497 21.7254 27.7346 21.4255C28.1068 20.956 28.3333 20.0863 28.3333 18.2933V8.97333C28.3333 6.98262 28.0556 6.1374 27.6209 5.70847C27.1816 5.27497 26.3141 5 24.2933 5H11.7067C9.72007 5 8.84786 5.2638 8.4019 5.68335C8.06173 6.00337 7.81094 6.56813 7.71195 7.73333ZM7.03148 4.22665C8.10555 3.2162 9.73335 3 11.7067 3H24.2933C26.2992 3 27.9517 3.22503 29.0257 4.28487C30.1044 5.34927 30.3333 6.99071 30.3333 8.97333V18.2933C30.3333 20.1004 30.1399 21.6107 29.302 22.6678C28.4201 23.7806 27.0413 24.1409 25.3923 24.2383C25.1173 24.2545 24.8478 24.1566 24.6474 23.9677C24.447 23.7787 24.3333 23.5155 24.3333 23.24V13.7067C24.3333 11.716 24.0556 10.8707 23.6209 10.4418C23.1816 10.0083 22.3141 9.73333 20.2933 9.73333H7.70671C7.35589 9.73333 7.02717 9.74585 6.7083 9.75913C6.43427 9.77055 6.16758 9.66892 5.97065 9.47802C5.77372 9.28713 5.66384 9.02373 5.66673 8.74947C5.68681 6.84156 5.9401 5.2534 7.03148 4.22665Z" fill="#C6C6C6"/>
<path fill-rule="evenodd" clip-rule="evenodd" d="M6 23.7466C6 23.1944 6.44772 22.7466 7 22.7466H9.29329C9.84558 22.7466 10.2933 23.1944 10.2933 23.7466C10.2933 24.2989 9.84558 24.7466 9.29329 24.7466H7C6.44772 24.7466 6 24.2989 6 23.7466Z" fill="#C6C6C6"/>
<path fill-rule="evenodd" clip-rule="evenodd" d="M11.1467 23.7466C11.1467 23.1944 11.5944 22.7466 12.1467 22.7466H16.7333C17.2856 22.7466 17.7333 23.1944 17.7333 23.7466C17.7333 24.2989 17.2856 24.7466 16.7333 24.7466H12.1467C11.5944 24.7466 11.1467 24.2989 11.1467 23.7466Z" fill="#C6C6C6"/>
</svg>
