<svg width="28" height="28" viewBox="0 0 28 28" fill="none" xmlns="http://www.w3.org/2000/svg">
<path fill-rule="evenodd" clip-rule="evenodd" d="M1.45834 9.91669C1.45834 9.43344 1.85009 9.04169 2.33334 9.04169H15.75C16.2333 9.04169 16.625 9.43344 16.625 9.91669C16.625 10.3999 16.2333 10.7917 15.75 10.7917H2.33334C1.85009 10.7917 1.45834 10.3999 1.45834 9.91669Z" fill="#292D32"/>
<path fill-rule="evenodd" clip-rule="evenodd" d="M6.125 19.25C6.125 18.7668 6.51675 18.375 7 18.375H9.33333C9.81658 18.375 10.2083 18.7668 10.2083 19.25C10.2083 19.7332 9.81658 20.125 9.33333 20.125H7C6.51675 20.125 6.125 19.7332 6.125 19.25Z" fill="#292D32"/>
<path fill-rule="evenodd" clip-rule="evenodd" d="M11.375 19.25C11.375 18.7668 11.7668 18.375 12.25 18.375H16.9167C17.3999 18.375 17.7917 18.7668 17.7917 19.25C17.7917 19.7332 17.3999 20.125 16.9167 20.125H12.25C11.7668 20.125 11.375 19.7332 11.375 19.25Z" fill="#292D32"/>
<path fill-rule="evenodd" clip-rule="evenodd" d="M3.98542 5.73076C3.48951 6.22109 3.20834 7.15305 3.20834 9.20501V18.795C3.20834 20.847 3.48951 21.7789 3.98542 22.2693C4.48477 22.763 5.43551 23.0417 7.51334 23.0417H20.4867C22.5645 23.0417 23.5152 22.763 24.0146 22.2693C24.5105 21.7789 24.7917 20.847 24.7917 18.795V14.035C24.7917 13.5518 25.1834 13.16 25.6667 13.16C26.1499 13.16 26.5417 13.5518 26.5417 14.035V18.795C26.5417 20.838 26.3037 22.4669 25.245 23.5137C24.1898 24.557 22.5505 24.7917 20.4867 24.7917H7.51334C5.4495 24.7917 3.81024 24.557 2.755 23.5137C1.69633 22.4669 1.45834 20.838 1.45834 18.795V9.20501C1.45834 7.16197 1.69633 5.5331 2.755 4.48634C3.81024 3.44299 5.4495 3.20834 7.51334 3.20834H15.75C16.2333 3.20834 16.625 3.60009 16.625 4.08334C16.625 4.56659 16.2333 4.95834 15.75 4.95834H7.51334C5.43551 4.95834 4.48477 5.23703 3.98542 5.73076Z" fill="#292D32"/>
<path fill-rule="evenodd" clip-rule="evenodd" d="M18.375 7.29169C18.375 6.80844 18.7668 6.41669 19.25 6.41669H25.6667C26.1499 6.41669 26.5417 6.80844 26.5417 7.29169C26.5417 7.77494 26.1499 8.16669 25.6667 8.16669H19.25C18.7668 8.16669 18.375 7.77494 18.375 7.29169Z" fill="#292D32"/>
<path fill-rule="evenodd" clip-rule="evenodd" d="M22.4583 3.20834C22.9416 3.20834 23.3333 3.60009 23.3333 4.08334V10.5C23.3333 10.9833 22.9416 11.375 22.4583 11.375C21.9751 11.375 21.5833 10.9833 21.5833 10.5V4.08334C21.5833 3.60009 21.9751 3.20834 22.4583 3.20834Z" fill="#292D32"/>
</svg>
