<svg width="28" height="28" viewBox="0 0 28 28" fill="none" xmlns="http://www.w3.org/2000/svg">
<path fill-rule="evenodd" clip-rule="evenodd" d="M12.7867 10.78C12.3818 10.78 11.97 11.1468 11.97 11.69C11.97 12.1013 12.0583 12.2497 12.1025 12.306C12.1551 12.3729 12.2601 12.4562 12.541 12.5565L16.0551 13.7823C16.4662 13.9286 16.936 14.1583 17.2869 14.6077C17.6456 15.067 17.7917 15.6399 17.7917 16.2983C17.7917 17.7306 16.6831 18.9583 15.225 18.9583H13.0317C11.4389 18.9583 10.2083 17.6195 10.2083 16.0417C10.2083 15.5584 10.6001 15.1667 11.0833 15.1667C11.5666 15.1667 11.9583 15.5584 11.9583 16.0417C11.9583 16.7271 12.4778 17.2083 13.0317 17.2083H15.225C15.6335 17.2083 16.0417 16.8494 16.0417 16.2983C16.0417 15.895 15.9544 15.7446 15.9077 15.6848C15.8533 15.6152 15.7461 15.5302 15.4708 15.4319L11.9566 14.206C11.551 14.0616 11.079 13.8361 10.7262 13.3869C10.3651 12.927 10.22 12.352 10.22 11.69C10.22 10.2732 11.3249 9.03 12.7867 9.03H14.98C16.5728 9.03 17.8033 10.3688 17.8033 11.9467C17.8033 12.4299 17.4116 12.8217 16.9283 12.8217C16.4451 12.8217 16.0533 12.4299 16.0533 11.9467C16.0533 11.2612 15.5338 10.78 14.98 10.78H12.7867Z" fill="black"/>
<path fill-rule="evenodd" clip-rule="evenodd" d="M14 7.875C14.4832 7.875 14.875 8.26675 14.875 8.75V19.25C14.875 19.7332 14.4832 20.125 14 20.125C13.5168 20.125 13.125 19.7332 13.125 19.25V8.75C13.125 8.26675 13.5168 7.875 14 7.875Z" fill="black"/>
<path fill-rule="evenodd" clip-rule="evenodd" d="M14 3.20834C8.04325 3.20834 3.20834 8.04326 3.20834 14C3.20834 19.9568 8.04325 24.7917 14 24.7917C19.9568 24.7917 24.7917 19.9568 24.7917 14C24.7917 13.5168 25.1834 13.125 25.6667 13.125C26.1499 13.125 26.5417 13.5168 26.5417 14C26.5417 20.9233 20.9233 26.5417 14 26.5417C7.07675 26.5417 1.45834 20.9233 1.45834 14C1.45834 7.07676 7.07675 1.45834 14 1.45834C14.4833 1.45834 14.875 1.85009 14.875 2.33334C14.875 2.81659 14.4833 3.20834 14 3.20834Z" fill="black"/>
<path fill-rule="evenodd" clip-rule="evenodd" d="M20.125 2.33334C20.125 1.85009 20.5168 1.45834 21 1.45834H25.6667C26.1499 1.45834 26.5417 1.85009 26.5417 2.33334V7.00001C26.5417 7.48326 26.1499 7.87501 25.6667 7.87501C25.1834 7.87501 24.7917 7.48326 24.7917 7.00001V3.20834H21C20.5168 3.20834 20.125 2.81659 20.125 2.33334Z" fill="black"/>
<path fill-rule="evenodd" clip-rule="evenodd" d="M26.2854 1.71463C26.6271 2.05633 26.6271 2.61035 26.2854 2.95206L20.4521 8.7854C20.1103 9.1271 19.5563 9.1271 19.2146 8.7854C18.8729 8.44369 18.8729 7.88967 19.2146 7.54796L25.048 1.71463C25.3897 1.37292 25.9437 1.37292 26.2854 1.71463Z" fill="black"/>
</svg>
