<svg width="28" height="28" viewBox="0 0 28 28" fill="none" xmlns="http://www.w3.org/2000/svg">
<path fill-rule="evenodd" clip-rule="evenodd" d="M2.625 14C2.625 12.2334 4.06675 10.7917 5.83333 10.7917C7.59992 10.7917 9.04167 12.2334 9.04167 14C9.04167 15.7666 7.59991 17.2083 5.83333 17.2083C4.06675 17.2083 2.625 15.7666 2.625 14ZM5.83333 12.5417C5.03325 12.5417 4.375 13.1999 4.375 14C4.375 14.8001 5.03325 15.4583 5.83333 15.4583C6.63342 15.4583 7.29167 14.8001 7.29167 14C7.29167 13.1999 6.63342 12.5417 5.83333 12.5417Z" fill="#292D32"/>
<path fill-rule="evenodd" clip-rule="evenodd" d="M18.9583 14C18.9583 12.2334 20.4001 10.7917 22.1667 10.7917C23.9332 10.7917 25.375 12.2334 25.375 14C25.375 15.7666 23.9332 17.2083 22.1667 17.2083C20.4001 17.2083 18.9583 15.7666 18.9583 14ZM22.1667 12.5417C21.3666 12.5417 20.7083 13.1999 20.7083 14C20.7083 14.8001 21.3666 15.4583 22.1667 15.4583C22.9667 15.4583 23.625 14.8001 23.625 14C23.625 13.1999 22.9667 12.5417 22.1667 12.5417Z" fill="#292D32"/>
<path fill-rule="evenodd" clip-rule="evenodd" d="M10.7917 14C10.7917 12.2334 12.2334 10.7917 14 10.7917C15.7666 10.7917 17.2083 12.2334 17.2083 14C17.2083 15.7666 15.7666 17.2083 14 17.2083C12.2334 17.2083 10.7917 15.7666 10.7917 14ZM14 12.5417C13.1999 12.5417 12.5417 13.1999 12.5417 14C12.5417 14.8001 13.1999 15.4583 14 15.4583C14.8001 15.4583 15.4583 14.8001 15.4583 14C15.4583 13.1999 14.8001 12.5417 14 12.5417Z" fill="#292D32"/>
</svg>
