<svg width="28" height="28" viewBox="0 0 28 28" fill="none" xmlns="http://www.w3.org/2000/svg">
<path fill-rule="evenodd" clip-rule="evenodd" d="M21.0196 3.20835C20.2039 3.21038 19.5417 3.87348 19.5417 4.67834V11.9583H22.6566C23.391 11.9583 23.9053 11.7297 24.2342 11.4009C24.563 11.072 24.7917 10.5577 24.7917 9.82334V7.00001C24.7917 5.96129 24.3679 5.0126 23.6809 4.31496C23.0018 3.637 22.0561 3.21898 21.0196 3.20835ZM17.7917 4.67834C17.7917 2.89444 19.2508 1.45834 21.0234 1.45834H21.0314L21.0314 1.45838C22.5355 1.47218 23.9205 2.07976 24.9204 3.07963L24.9247 3.08389L24.9247 3.08391C25.9164 4.08939 26.5417 5.47314 26.5417 7.00001V9.82334C26.5417 10.9323 26.1869 11.923 25.4716 12.6383C24.7563 13.3536 23.7656 13.7083 22.6566 13.7083H18.6667C18.1834 13.7083 17.7917 13.3166 17.7917 12.8333V4.67834Z" fill="#292D32"/>
<path fill-rule="evenodd" clip-rule="evenodd" d="M2.69192 3.12791C3.63084 2.04065 5.07087 1.45834 7 1.45834H21C21.4832 1.45834 21.875 1.85009 21.875 2.33334C21.875 2.81659 21.4832 3.20834 21 3.20834C20.1999 3.20834 19.5417 3.86659 19.5417 4.66668V24.5C19.5417 26.1821 17.6207 27.1324 16.2784 26.1359L16.2757 26.1338L14.2715 24.6336C14.1709 24.5562 14.0101 24.5607 13.9071 24.6637L11.9471 26.6237C11.1504 27.4204 9.84963 27.4204 9.05292 26.6237L9.05106 26.6219L7.11629 24.6754C7.1161 24.6752 7.11647 24.6756 7.11629 24.6754C7.00052 24.5601 6.83396 24.5545 6.72 24.64L4.72835 26.1308C4.72757 26.1314 4.72678 26.132 4.726 26.1326C3.37478 27.1534 1.45833 26.184 1.45833 24.5V7.00001C1.45833 5.59667 1.77372 4.19119 2.69192 3.12791ZM18.1437 3.20834H7C5.42913 3.20834 4.53583 3.6702 4.01641 4.27169C3.47628 4.89716 3.20833 5.82502 3.20833 7.00001V24.5C3.20833 24.7517 3.48294 24.8788 3.6716 24.7359L3.67563 24.7328L5.67 23.24C6.48919 22.6256 7.62952 22.7138 8.35372 23.438L8.35559 23.4398L10.2904 25.3863C10.2902 25.3861 10.2905 25.3865 10.2904 25.3863C10.4037 25.4991 10.5965 25.4994 10.7096 25.3863L12.6696 23.4263C13.3818 22.7142 14.5241 22.6242 15.3332 23.2424L17.3216 24.7308C17.3219 24.731 17.3223 24.7313 17.3226 24.7315C17.5202 24.8771 17.7917 24.7309 17.7917 24.5V4.66668C17.7917 4.14219 17.9188 3.64634 18.1437 3.20834Z" fill="#292D32"/>
<path fill-rule="evenodd" clip-rule="evenodd" d="M6.125 10.5C6.125 10.0168 6.51675 9.625 7 9.625H14C14.4832 9.625 14.875 10.0168 14.875 10.5C14.875 10.9832 14.4832 11.375 14 11.375H7C6.51675 11.375 6.125 10.9832 6.125 10.5Z" fill="#292D32"/>
<path fill-rule="evenodd" clip-rule="evenodd" d="M7 15.1667C7 14.6834 7.39175 14.2917 7.875 14.2917H13.125C13.6083 14.2917 14 14.6834 14 15.1667C14 15.6499 13.6083 16.0417 13.125 16.0417H7.875C7.39175 16.0417 7 15.6499 7 15.1667Z" fill="#292D32"/>
</svg>
